<svg width="40" height="40" viewBox="0 0 40 40" fill="none" xmlns="http://www.w3.org/2000/svg">
<path d="M12.4491 31.5462L12.9593 31.8479C15.1022 33.1173 17.5593 33.7887 20.065 33.7899H20.0703C27.7652 33.7899 34.0277 27.5408 34.0309 19.8601C34.0322 16.1381 32.5815 12.6381 29.9456 10.0052C28.6528 8.70681 27.1148 7.67719 25.4207 6.97601C23.7265 6.27483 21.9098 5.916 20.0758 5.9203C12.3749 5.9203 6.11219 12.1687 6.10945 19.8489C6.10566 22.4715 6.8456 25.0416 8.24373 27.2621L8.57589 27.7889L7.16529 32.9288L12.4491 31.5462ZM3.13232 36.9108L5.51544 28.2264C4.04571 25.6849 3.27249 22.8017 3.27341 19.8478C3.27729 10.607 10.8118 3.08923 20.0705 3.08923C24.5635 3.09151 28.7807 4.83664 31.9523 8.00447C35.1239 11.1723 36.869 15.383 36.8674 19.8612C36.8633 29.1014 29.3277 36.6205 20.0703 36.6205H20.063C17.252 36.6194 14.49 35.9155 12.0365 34.5803L3.13232 36.9108Z" fill="#B3B3B3"/>
<path d="M2.95996 36.7385L5.34308 28.0542C3.87082 25.5065 3.09749 22.6166 3.10104 19.6756C3.10492 10.4348 10.6394 2.91699 19.8981 2.91699C24.3911 2.91927 28.6083 4.66439 31.7799 7.83223C34.9516 11.0001 36.6966 15.2108 36.695 19.689C36.6909 28.9291 29.1553 36.4483 19.8979 36.4483H19.8906C17.0797 36.4471 14.3176 35.7433 11.8642 34.4081L2.95996 36.7385Z" fill="white"/>
<path d="M19.9031 5.74809C12.2022 5.74809 5.93952 11.9965 5.93678 19.6767C5.93299 22.2993 6.67293 24.8694 8.07106 27.0899L8.40322 27.6169L6.99262 32.7568L12.2766 31.374L12.7868 31.6757C14.9298 32.945 17.3869 33.6163 19.8926 33.6177H19.8978C27.5928 33.6177 33.8555 27.3686 33.8584 19.6879C33.8642 17.8572 33.5062 16.0436 32.8049 14.352C32.1037 12.6604 31.0732 11.1244 29.7732 9.83303C28.4804 8.53456 26.9423 7.50493 25.2481 6.80375C23.5539 6.10256 21.7372 5.74375 19.9031 5.74809Z" fill="url(#paint0_linear_357_3892)"/>
<path fillRule="evenodd" clipRule="evenodd" d="M15.6998 12.6692C15.3853 11.9718 15.0542 11.9577 14.7554 11.9456L13.9509 11.9358C13.671 11.9358 13.2163 12.0406 12.8318 12.4599C12.4474 12.8791 11.3628 13.8924 11.3628 15.9533C11.3628 18.0142 12.8668 20.0057 13.0763 20.2855C13.2859 20.5653 15.9797 24.9293 20.2458 26.6084C23.7909 28.0037 24.5123 27.7262 25.2821 27.6565C26.0519 27.5868 27.7652 26.6432 28.1147 25.6651C28.4642 24.6869 28.4644 23.8488 28.3596 23.6736C28.2549 23.4984 27.975 23.3943 27.5549 23.1847C27.1349 22.975 25.0718 21.9618 24.6871 21.8219C24.3025 21.682 24.0228 21.6125 23.7427 22.0317C23.4626 22.451 22.6592 23.394 22.4143 23.6736C22.1693 23.9532 21.9248 23.9883 21.5048 23.7789C21.0847 23.5695 19.7333 23.127 18.1298 21.7C16.8822 20.5896 16.04 19.2184 15.7948 18.7994C15.5496 18.3804 15.7688 18.1534 15.9793 17.9447C16.1676 17.757 16.3989 17.4555 16.6091 17.211C16.8194 16.9666 16.8885 16.7918 17.0283 16.5127C17.168 16.2335 17.0983 15.9884 16.9933 15.779C16.8883 15.5696 16.0729 13.4977 15.6998 12.6692Z" fill="white"/>
<defs>
<linearGradient id="paint0_linear_357_3892" x1="19.6134" y1="7.42052" x2="19.7544" y2="31.2368" gradientUnits="userSpaceOnUse">
<stop stop-color="#57D163"/>
<stop offset="1" stop-color="#23B33A"/>
</linearGradient>
</defs>
</svg>
